<?xml version="1.0" encoding="UTF-8" standalone="no"?>
<!-- Generator: Adobe Illustrator 16.0.0, SVG Export Plug-In . SVG Version: 6.00 Build 0)  -->

<svg
   version="1.1"
   id="Capa_1"
   x="0px"
   y="0px"
   width="600"
   height="600"
   viewBox="40.426 179.505 600 600"
   enable-background="new 40.426 179.505 202.655 60.473"
   xml:space="preserve"
   sodipodi:docname="situm-logo-whitebg.svg"
   inkscape:version="1.3.1 (6036e22fae, 2023-11-19, custom)"
   xmlns:inkscape="http://www.inkscape.org/namespaces/inkscape"
   xmlns:sodipodi="http://sodipodi.sourceforge.net/DTD/sodipodi-0.dtd"
   xmlns="http://www.w3.org/2000/svg"
   xmlns:svg="http://www.w3.org/2000/svg"><defs
   id="defs22" /><sodipodi:namedview
   id="namedview22"
   pagecolor="#ffffff"
   bordercolor="#000000"
   borderopacity="0.25"
   inkscape:showpageshadow="2"
   inkscape:pageopacity="0.0"
   inkscape:pagecheckerboard="0"
   inkscape:deskcolor="#d1d1d1"
   inkscape:zoom="1"
   inkscape:cx="372"
   inkscape:cy="399"
   inkscape:window-width="1920"
   inkscape:window-height="1016"
   inkscape:window-x="1920"
   inkscape:window-y="231"
   inkscape:window-maximized="1"
   inkscape:current-layer="Capa_1" />
<ellipse
   style="fill:#f9f9f9"
   id="path26"
   cx="340.06613"
   cy="479.59467"
   rx="300.12598"
   ry="300.02081" /><g
   id="g26"
   transform="matrix(9.9141535,0,0,9.9141535,-2143.2717,-3479.1295)"><g
     id="g24"
     transform="translate(179.88224,189.56953)">
		<path
   id="path23"
   opacity="0.67"
   fill="#27357d"
   enable-background="new    "
   d="m 83.9,196.504 -11.713,31.95 -2.476,-17.713 -17.713,-2.477 z" />
		<path
   id="path24"
   fill="#27357d"
   d="m 83.9,196.504 -11.713,31.95 -2.476,-17.713 v 0 z" />
	</g><g
     id="g25"
     transform="translate(179.88224,189.56953)">
		<path
   id="path25"
   fill="#27357d"
   d="m 70.663,179.505 c -16.713,0 -30.236,13.522 -30.236,30.236 0,16.713 13.523,30.236 30.236,30.236 16.713,0 30.236,-13.523 30.236,-30.236 0,-16.713 -13.523,-30.236 -30.236,-30.236 z m 0,57.615 c -15.094,0 -27.332,-12.237 -27.332,-27.332 0,-15.094 12.237,-27.331 27.332,-27.331 15.095,0 27.332,12.237 27.332,27.331 -0.001,15.095 -12.238,27.332 -27.332,27.332 z" />
	</g></g>
</svg>
